<svg id="Layer_1" data-name="Layer 1" xmlns="http://www.w3.org/2000/svg" width="174.63mm" height="52.56mm" viewBox="0 0 495 149"><title>Artboard 1</title><path d="M72.91,38.67a.48.48,0,0,1,.4.5.35.35,0,0,1-.4.4,7.48,7.48,0,0,0-1.1-.1h-.7a4.69,4.69,0,0,0-1.3.15,2.24,2.24,0,0,0-1,.75,52.62,52.62,0,0,0-4.5,7.15l-4.7,8.75q-2.3,4.2-4.6,8.15t-4.7,7.75a64.3,64.3,0,0,1-3.85,5.55,39.72,39.72,0,0,1-4.25,4.85q-2.19,2.1-4.7,4.15a34.08,34.08,0,0,1-5.45,3.65A32.27,32.27,0,0,1,25.71,93a26.75,26.75,0,0,1-7.6,1,20.4,20.4,0,0,1-7.7-1.3,2.19,2.19,0,0,1-.75-.45,1.17,1.17,0,0,1-.15-1c0-.47,0-1.12.05-2s.09-1.72.15-2.65l.7-.2A7.22,7.22,0,0,0,13,90.92c1.44,1.23,3.75,1.85,7,1.85a20.22,20.22,0,0,0,7.75-1.45A23.59,23.59,0,0,0,35.11,86a60.45,60.45,0,0,0,7-8.65q3.56-5.14,7.35-11.55,1.71-2.89,3.6-6.25t3.7-6.75c1.2-2.26,2.34-4.45,3.4-6.55s2-3.95,2.7-5.55a1.33,1.33,0,0,0,.1-.6c0-.26-.2-.4-.6-.4-1.4,0-2.9.09-4.5.25s-3.2.42-4.8.75-3.13.74-4.6,1.2a24.5,24.5,0,0,0-3.9,1.6,9,9,0,0,0-3,2.8,7.1,7.1,0,0,0-1.35,4.2,4.5,4.5,0,0,0,.2,1.4c.14.2.07.3-.2.3A3.59,3.59,0,0,1,39.16,51a5.59,5.59,0,0,1-.55-2.8,6.31,6.31,0,0,1,1.6-3.65q1.6-2,5.8-3.45a30.93,30.93,0,0,1,3.5-.9q2-.39,5.1-.75t7.55-.55Q66.61,38.68,72.91,38.67Z"/><path d="M92.71,66.17a19.9,19.9,0,0,1-4.15,4.15A8.92,8.92,0,0,1,83,72.17a7.21,7.21,0,0,1-3.35-.85A6.43,6.43,0,0,1,77,68.77c-.46,1.07-1.06,2.29-1.8,3.65a33.69,33.69,0,0,1-2.6,4.1,24.93,24.93,0,0,1-3.35,3.75,18.13,18.13,0,0,1-4,2.8,7.81,7.81,0,0,1-3,.8c-2.4,0-3.6-1.06-3.6-3.2a11.5,11.5,0,0,1,.65-3.7A24.32,24.32,0,0,1,61,73.27a37.08,37.08,0,0,1,2.15-3.4,23,23,0,0,1,2.15-2.6,21,21,0,0,1,4.8-3.9,14,14,0,0,1,5.8-1.9c.14-.53.34-1.15.6-1.85a1.86,1.86,0,0,1,1.4-1.25l1-.2a3,3,0,0,0,.9-.3.57.57,0,0,1,.6,0c.2.1.24.29.1.55a8.71,8.71,0,0,0-1.05,2.8,18.68,18.68,0,0,0-.35,3.7,9,9,0,0,0,1,4.6,3.88,3.88,0,0,0,3.65,1.8,7.23,7.23,0,0,0,4.7-1.7,17.88,17.88,0,0,0,3.5-3.7c.14-.33.35-.43.65-.3S93,65.91,92.71,66.17Zm-16.5.7a17,17,0,0,1-.3-2.1c-.06-.8-.1-1.56-.1-2.3,0-.33-.13-.5-.4-.5a4.37,4.37,0,0,0-2.3.75,12.85,12.85,0,0,0-2.4,2,32.64,32.64,0,0,0-2.4,2.85,37.09,37.09,0,0,0-2.2,3.3,38.18,38.18,0,0,0-2.35,4.75,11.53,11.53,0,0,0-.95,4.85,3.46,3.46,0,0,0,.25,1.3,1.11,1.11,0,0,0,1.15.6,5.63,5.63,0,0,0,3.7-1.9A29.15,29.15,0,0,0,71.71,76a35.3,35.3,0,0,0,3.05-5.15A14.77,14.77,0,0,0,76.21,66.87Z"/><path d="M99.81,64.87c-.2.34-.36.37-.5.1a2.47,2.47,0,0,0-2.5-1.3,5.66,5.66,0,0,0-2.8.8,2.62,2.62,0,0,0-1.4,2.4,3,3,0,0,0,.5,1.6c.34.54.8,1.24,1.4,2.1s1,1.6,1.5,2.4a4.88,4.88,0,0,1,.7,2.5,7,7,0,0,1-1.2,4.25,9.68,9.68,0,0,1-2.85,2.65,10.35,10.35,0,0,1-3.35,1.35,14.4,14.4,0,0,1-2.7.35c-4.06,0-6.3-1.36-6.7-4.1.34-.2.72-.45,1.15-.75a3.91,3.91,0,0,0,1-.85c.14,0,.24.14.3.4a6.6,6.6,0,0,0,1.9,3.1,4.7,4.7,0,0,0,3.3,1.3,14.22,14.22,0,0,0,1.9-.15,5.43,5.43,0,0,0,2-.7,5,5,0,0,0,1.65-1.55,4.58,4.58,0,0,0,.7-2.7,5.67,5.67,0,0,0-.5-2.4,14,14,0,0,0-1.1-2l-1.2-2a4.18,4.18,0,0,1-.6-2.2,5.16,5.16,0,0,1,.85-2.6,11.47,11.47,0,0,1,2.15-2.55,14.67,14.67,0,0,1,2.85-1.95,6.68,6.68,0,0,1,3-.8c1.07,0,1.6.34,1.6,1-.2.34-.4.72-.6,1.15S100,64.54,99.81,64.87Z"/><path d="M128.51,71.27a46.32,46.32,0,0,1-4,4.35,37.67,37.67,0,0,1-5.1,4.1,28.31,28.31,0,0,1-5.7,3,15.94,15.94,0,0,1-5.85,1.15q-4.69,0-4.7-4.2a14.92,14.92,0,0,1,1.45-6,26,26,0,0,1,3.75-6,24.48,24.48,0,0,1,5-4.6,9.49,9.49,0,0,1,5.25-1.85,3,3,0,0,1,2,.5,1.68,1.68,0,0,1,.55,1.3,5.55,5.55,0,0,1-.75,2.6,9,9,0,0,1-2.25,2.65,12.59,12.59,0,0,1-3.8,2.1,15.81,15.81,0,0,1-5.5.85,16.23,16.23,0,0,0-1.1,2.85,13.38,13.38,0,0,0-.6,4c0,2.74,1.23,4.1,3.7,4.1a11.46,11.46,0,0,0,4.75-1.1,27.18,27.18,0,0,0,4.75-2.75,34.38,34.38,0,0,0,4.25-3.6A37,37,0,0,0,127.81,71a.4.4,0,0,1,.45-.1A.39.39,0,0,1,128.51,71.27ZM118,63.47a1.15,1.15,0,0,0-1.3-1.3,3.53,3.53,0,0,0-2,.75,11.23,11.23,0,0,0-2,2,26,26,0,0,0-1.9,2.6,23.37,23.37,0,0,0-1.5,2.7,2,2,0,0,0,.7.15,6.75,6.75,0,0,0,.8.05,7.23,7.23,0,0,0,5.1-2.05A6.39,6.39,0,0,0,118,63.47Z"/><path d="M186.31,11.67a10.91,10.91,0,0,1-.15,1.4c-.1.67-.2,1.4-.3,2.2l-.3,2.4a15.91,15.91,0,0,0-.15,1.8.65.65,0,0,1-.5.2.57.57,0,0,1-.4-.2,7.86,7.86,0,0,0,.25-1.4c0-.4.05-.8.05-1.2a3.53,3.53,0,0,0-1.65-3.1,8.37,8.37,0,0,0-4.65-1.1,14.83,14.83,0,0,0-4.35.7,15.09,15.09,0,0,0-4.6,2.5,33,33,0,0,0-4.9,4.8,54.46,54.46,0,0,0-5.25,7.6q-1.5,2.61-3.7,6.7T151,43.72q-2.5,4.65-5,9.5t-4.6,9.05c.6,0,1.6,0,3-.05s2.84,0,4.3,0h6.5a.79.79,0,0,1,.3,1h-2c-1.07,0-2.33,0-3.8,0l-4.55.1c-1.57,0-3,0-4.25,0q-3.3,6.41-6.95,12.85t-7.3,12.45q-3.64,6-7.2,11.15t-6.55,9.05a168.22,168.22,0,0,1-14.25,16.25,94.3,94.3,0,0,1-12.85,10.8,49,49,0,0,1-11.45,6,31.14,31.14,0,0,1-10.15,1.85,17.16,17.16,0,0,1-3-.3,9.91,9.91,0,0,1-3.2-1.2,9.05,9.05,0,0,1-2.75-2.55,11.64,11.64,0,0,1-1.8-4.35c0-.53.07-.77.2-.7a1.11,1.11,0,0,1,.4.6,5.57,5.57,0,0,0,.8,1.85,9,9,0,0,0,2,2.25,12,12,0,0,0,3.35,1.85A13.75,13.75,0,0,0,65,142a37.83,37.83,0,0,0,9.75-1.65,40.6,40.6,0,0,0,11-5.45A77.19,77.19,0,0,0,98,124.42a123.35,123.35,0,0,0,13.15-16.55q3.6-5.3,7.15-11.35t6.9-12q3.36-5.94,6.3-11.45t5.35-9.6c-2.87.2-5.13.4-6.8.6a14.78,14.78,0,0,0-4,1,5.41,5.41,0,0,0-2.35,1.9,31.18,31.18,0,0,0-2,3.45l-.3-.1a19.69,19.69,0,0,1,2.8-5,6.45,6.45,0,0,1,2.6-2c.53-.13,1.25-.26,2.15-.4s1.87-.23,2.9-.3l3-.2c1-.06,1.87-.1,2.6-.1q5-9.19,9.65-17.05t9.65-15.35q2.7-4.1,5.8-7.95a64.39,64.39,0,0,1,6.3-6.8,33.75,33.75,0,0,1,6.35-4.7,12.55,12.55,0,0,1,6.05-1.75,6.65,6.65,0,0,1,3.5.9A2.53,2.53,0,0,1,186.31,11.67Z"/><path d="M168.71,70.07a44.61,44.61,0,0,1-5.5,5.9,47.3,47.3,0,0,1-5.7,4.5,17.45,17.45,0,0,1-4.1,2,12.06,12.06,0,0,1-3.8.7,10.8,10.8,0,0,1-1.4-.1,3.44,3.44,0,0,1-1.45-.5,3.54,3.54,0,0,1-1.1-1,3,3,0,0,1-.45-1.75,9.46,9.46,0,0,1,1-3.55q1-2.25,2.35-4.65t2.7-4.6c.9-1.46,1.62-2.56,2.15-3.3a3.81,3.81,0,0,1,1.75-1.35,5.69,5.69,0,0,1,1.65-.55c.33,0,.5.1.5.3a1.84,1.84,0,0,1-.15.6,1.66,1.66,0,0,1-.35.6c-.87,1.34-1.75,2.8-2.65,4.4s-1.72,3.15-2.45,4.65A36.83,36.83,0,0,0,150,76.47a10.09,10.09,0,0,0-.65,3,2.17,2.17,0,0,0,.65,1.75,2.6,2.6,0,0,0,1.75.55,9.12,9.12,0,0,0,4.4-1.35,34.3,34.3,0,0,0,4.75-3.25,43.89,43.89,0,0,0,4.35-4,38.42,38.42,0,0,0,3.1-3.6c.33-.33.52-.41.55-.25A1.53,1.53,0,0,1,168.71,70.07Zm-4.5-22.3a3.67,3.67,0,0,1-1.05,2.4,3.08,3.08,0,0,1-2.35,1.2,1.06,1.06,0,0,1-1.2-1.2,4,4,0,0,1,.95-2.5,2.89,2.89,0,0,1,2.35-1.2A1.15,1.15,0,0,1,164.21,47.77Z"/><path d="M195,70.27a53.38,53.38,0,0,1-4.15,5,37.39,37.39,0,0,1-5,4.55,30.35,30.35,0,0,1-5.4,3.3,12.43,12.43,0,0,1-5.35,1.3,6.72,6.72,0,0,1-2.2-.35c-.67-.23-1-.82-1-1.75a8.88,8.88,0,0,1,1-3.55q1-2.14,2.35-4.55t2.8-4.9a42,42,0,0,0,2.35-4.6,1.11,1.11,0,0,0,.05-.85c-.1-.23-.32-.25-.65-.05a32,32,0,0,0-2.6,1.9c-1,.8-2,1.65-3.05,2.55s-2,1.82-3,2.75a31,31,0,0,0-2.35,2.5c-1.07,1.67-2,3.2-2.75,4.6s-1.72,3-2.85,4.7q-.41.6-.6.6c-.33,0-.62-.36-.85-1.1a6.72,6.72,0,0,1-.35-1.4,4.58,4.58,0,0,1,1.25-2.45q1.25-1.55,2.75-3.45,1.6-3.19,3.3-6.75t2.9-6.35a1,1,0,0,1,.9-.5,1.54,1.54,0,0,1,1.1.5,1.55,1.55,0,0,1,.5,1.1,10.77,10.77,0,0,1-1.45,2.75,48,48,0,0,0-2.85,5.45q1.91-1.69,4.15-3.6t4.3-3.5c1.37-1.06,2.57-2,3.6-2.65A5.08,5.08,0,0,1,184,60.47a1,1,0,0,1,.75.45,1.45,1.45,0,0,1,.35.85,2.67,2.67,0,0,1-.5,1.2q-1.1,1.61-2.7,4.1c-1.07,1.67-2.08,3.39-3,5.15a53.62,53.62,0,0,0-2.45,5,10.61,10.61,0,0,0-1,3.8,2.18,2.18,0,0,0,.5,1.65,2.35,2.35,0,0,0,1.6.45,8.4,8.4,0,0,0,4-1.3,36,36,0,0,0,4.75-3.25,41.21,41.21,0,0,0,4.65-4.35,32.92,32.92,0,0,0,3.6-4.6.45.45,0,0,1,.6-.15C195.38,69.62,195.34,69.87,195,70.27Z"/><path d="M214.91,71.27a46.32,46.32,0,0,1-4,4.35,38.3,38.3,0,0,1-5.1,4.1,28.31,28.31,0,0,1-5.7,3,16,16,0,0,1-5.85,1.15q-4.69,0-4.7-4.2a14.92,14.92,0,0,1,1.45-6,26,26,0,0,1,3.75-6,24.48,24.48,0,0,1,5-4.6A9.49,9.49,0,0,1,205,61.17a3,3,0,0,1,2,.5,1.68,1.68,0,0,1,.55,1.3,5.55,5.55,0,0,1-.75,2.6,9,9,0,0,1-2.25,2.65,12.59,12.59,0,0,1-3.8,2.1,15.81,15.81,0,0,1-5.5.85,16.23,16.23,0,0,0-1.1,2.85,13.38,13.38,0,0,0-.6,4c0,2.74,1.23,4.1,3.7,4.1A11.46,11.46,0,0,0,202,81a27.18,27.18,0,0,0,4.75-2.75,34.38,34.38,0,0,0,4.25-3.6A37,37,0,0,0,214.21,71a.4.4,0,0,1,.45-.1A.39.39,0,0,1,214.91,71.27Zm-10.5-7.8a1.15,1.15,0,0,0-1.3-1.3,3.53,3.53,0,0,0-2.05.75,11.23,11.23,0,0,0-2.05,2,26,26,0,0,0-1.9,2.6,23.37,23.37,0,0,0-1.5,2.7,2,2,0,0,0,.7.15,6.64,6.64,0,0,0,.8.05,7.25,7.25,0,0,0,5.1-2.05A6.39,6.39,0,0,0,204.41,63.47Z"/><path d="M332,34.17c.33.34.27.57-.2.7a2.41,2.41,0,0,0-.7-.1h-.6a11.05,11.05,0,0,0-2.95.6,22.63,22.63,0,0,0-5.45,3,84.15,84.15,0,0,0-8.85,7.35q-5.36,5-13.15,13.65-2,2.21-4.65,5.4c-1.77,2.14-3.53,4.29-5.3,6.45s-3.38,4.24-4.85,6.2a53.16,53.16,0,0,0-3.3,4.85,2.31,2.31,0,0,1-.6.75,2,2,0,0,1-.9.45,13.25,13.25,0,0,0-2.55.65,5.51,5.51,0,0,0-2,1.25c-.6,0-.67-.33-.2-1a5.69,5.69,0,0,0,.55-2.3q.25-2,.45-4.95t.35-6.6q.15-3.64.2-7.35c0-2.46.07-4.83.1-7.1s.05-4.23.05-5.9c0-.93-.23-1.4-.7-1.4a2.26,2.26,0,0,0-1,.5c-.53.47-1.48,1.34-2.85,2.6s-3,2.8-4.9,4.6l-6.35,6q-3.5,3.3-7.05,6.8t-6.9,7q-3.34,3.51-6.15,6.6l-.6.6a.86.86,0,0,1-.6.3,9.25,9.25,0,0,0-2.65.35,13.75,13.75,0,0,0-2.15.85q-.7,0-.3-.9a21.28,21.28,0,0,0,1.65-3.15c.57-1.3,1.22-2.81,1.95-4.55.33-.8.83-2.11,1.5-4s1.4-3.9,2.2-6.2,1.62-4.7,2.45-7.2,1.6-4.85,2.3-7.05,1.28-4.08,1.75-5.65a14.09,14.09,0,0,0,.7-3c0-.93-.5-1.4-1.5-1.4a11,11,0,0,0-2.85.4,9.17,9.17,0,0,1-2.35.4c-.33,0-.52-.13-.55-.4s.15-.43.55-.5q4.8-.9,7.4-1.45c1.73-.36,3-.65,3.85-.85a12.89,12.89,0,0,0,1.6-.45,1.52,1.52,0,0,1,.55-.15c.33,0,.5.14.5.4a.67.67,0,0,1-.3.6,4.78,4.78,0,0,0-.7,1.05c-.27.5-.55,1.1-.85,1.8s-.62,1.45-.95,2.25-.63,1.57-.9,2.3q-2.6,6.9-5.05,14.7t-4.55,15.2c-.2.74-.22,1.12-.05,1.15s.35,0,.55-.25q4.3-4,9.35-8.9t10.3-10q5.25-5,10.25-9.8t9.2-8.55a.49.49,0,0,1,.55.2c.17.2.18.37.05.5a2.1,2.1,0,0,0-.9.8,3.14,3.14,0,0,0-.5,1.3c-.13,1.14-.27,2.57-.4,4.3s-.25,3.6-.35,5.6-.17,4-.2,6.15,0,4.15,0,6.15q0,4.6.1,7.7c.07,2.07.1,3.74.1,5,0,.47.07.7.2.7a.8.8,0,0,0,.6-.4c1.2-1.46,2.52-3.05,3.95-4.75s2.9-3.45,4.4-5.25,3-3.56,4.5-5.3l4.15-4.8q2.29-2.6,5-5.5t5.45-5.7c1.83-1.86,3.62-3.66,5.35-5.4s3.3-3.23,4.7-4.5,2.58-2.2,3.95-3.2a7.69,7.69,0,0,1,4.65-1.5,3.6,3.6,0,0,1,.75.15c.37.1.73.22,1.1.35l1.05.4A3.06,3.06,0,0,1,332,34.17Z"/><path d="M305.11,78.77a3.32,3.32,0,0,1-.4,1.35,8.18,8.18,0,0,1-1,1.65,6.58,6.58,0,0,1-1.45,1.35,2.79,2.79,0,0,1-1.6.55,2.05,2.05,0,0,1-1.25-.4,1.36,1.36,0,0,1-.55-1.2,5.07,5.07,0,0,1,1.35-3.5,4,4,0,0,1,3-1.5,2.86,2.86,0,0,1,1.2.35A1.37,1.37,0,0,1,305.11,78.77Z"/><path d="M396.31,51.27a29,29,0,0,1-2.9,12.1,37.91,37.91,0,0,1-7.35,10.5,36.06,36.06,0,0,1-10.55,7.4,29.19,29.19,0,0,1-12.5,2.8,41.14,41.14,0,0,1-7.25-.6,16.62,16.62,0,0,1-5.8-2.1,11.24,11.24,0,0,1-3.9-4,12.34,12.34,0,0,1-1.45-6.3,21.84,21.84,0,0,1,1.15-6.75,44.17,44.17,0,0,1,2.95-6.95,46.13,46.13,0,0,1,4.1-6.4,37.94,37.94,0,0,1,4.5-5,27.05,27.05,0,0,1,9.7-5.7,34.67,34.67,0,0,1,17.45-1.2,19.81,19.81,0,0,1,5.9,2,12.56,12.56,0,0,1,4.35,3.9A10.25,10.25,0,0,1,396.31,51.27Zm-5-.7a12.39,12.39,0,0,0-1-5.25,9.59,9.59,0,0,0-2.7-3.5,11.3,11.3,0,0,0-4.1-2,20.41,20.41,0,0,0-5.3-.65,21.48,21.48,0,0,0-9.5,2,24.72,24.72,0,0,0-7.7,6.05,48,48,0,0,0-3.95,5.1,54.24,54.24,0,0,0-3.75,6.4,47.9,47.9,0,0,0-2.8,6.85,21.4,21.4,0,0,0-1.1,6.45,13.27,13.27,0,0,0,.95,5.35,8.19,8.19,0,0,0,2.65,3.4,10.71,10.71,0,0,0,4.05,1.8,22.41,22.41,0,0,0,5.15.55,21.56,21.56,0,0,0,11.15-3.1,35.72,35.72,0,0,0,9.25-7.85A39.06,39.06,0,0,0,389,61.72,29.31,29.31,0,0,0,391.31,50.57Z"/><path d="M443.81,18a12.15,12.15,0,0,1-1.1,4.1,50.81,50.81,0,0,1-3.15,6.25,86.09,86.09,0,0,1-5,7.6,84.49,84.49,0,0,1-6.7,8,81.86,81.86,0,0,1-8.25,7.65,63.42,63.42,0,0,1-9.6,6.45q-.9,1.6-2.5,4.3t-3.15,5.7q-1.55,3-2.7,5.9a13.77,13.77,0,0,0-1.15,4.9c0,2.14,1,3.2,2.9,3.2a11.2,11.2,0,0,0,5.2-1.4,29.21,29.21,0,0,0,5.15-3.4,50.22,50.22,0,0,0,4.6-4.25q2.14-2.25,3.65-4c.47-.46.73-.58.8-.35a.75.75,0,0,1-.3.75q-1.8,2.2-4.25,4.7a48.06,48.06,0,0,1-5.2,4.6,30.92,30.92,0,0,1-5.75,3.5,14,14,0,0,1-6,1.4,4.87,4.87,0,0,1-3.75-1.25,4.32,4.32,0,0,1-1.15-3A13.72,13.72,0,0,1,398,74.12q1.55-3.34,3.65-7.05c1.4-2.46,2.8-4.8,4.2-7s2.43-3.86,3.1-5l3.55-6q1.85-3.15,3.65-6.15l3.45-5.75q1.65-2.74,3.05-4.85,1.69-2.6,3.5-4.9a30.22,30.22,0,0,1,4.6-4.6,41.69,41.69,0,0,1,7-4.9c2.13-1.13,3.57-1.7,4.3-1.7a1.87,1.87,0,0,1,1.3.45A1.74,1.74,0,0,1,443.81,18Zm-4.5,2.6c0-1.06-.43-1.6-1.3-1.6a2.5,2.5,0,0,0-1.1.3,6.78,6.78,0,0,0-1.55,1.25,34.54,34.54,0,0,0-2.3,2.65c-.9,1.14-2.05,2.6-3.45,4.4-.53.74-1.28,1.8-2.25,3.2s-2.2,3.25-3.7,5.55-3.3,5.14-5.4,8.5l-7.45,12a59.94,59.94,0,0,0,11.25-8.25,72.57,72.57,0,0,0,9.05-10,55.67,55.67,0,0,0,6-9.9A20.23,20.23,0,0,0,439.31,20.57Z"/><path d="M431.11,64.87c-.2.34-.37.37-.5.1a2.47,2.47,0,0,0-2.5-1.3,5.63,5.63,0,0,0-2.8.8,2.62,2.62,0,0,0-1.4,2.4,3,3,0,0,0,.5,1.6c.33.54.8,1.24,1.4,2.1s1,1.6,1.5,2.4a4.88,4.88,0,0,1,.7,2.5,7,7,0,0,1-1.2,4.25A9.68,9.68,0,0,1,424,82.37a10.44,10.44,0,0,1-3.35,1.35,14.4,14.4,0,0,1-2.7.35c-4.07,0-6.3-1.36-6.7-4.1.33-.2.72-.45,1.15-.75a4.11,4.11,0,0,0,.95-.85c.13,0,.23.14.3.4a6.52,6.52,0,0,0,1.9,3.1,4.66,4.66,0,0,0,3.3,1.3,14.34,14.34,0,0,0,1.9-.15,5.49,5.49,0,0,0,2.05-.7,5.15,5.15,0,0,0,1.65-1.55,4.58,4.58,0,0,0,.7-2.7,5.83,5.83,0,0,0-.5-2.4,14,14,0,0,0-1.1-2l-1.2-2a4.18,4.18,0,0,1-.6-2.2,5.06,5.06,0,0,1,.85-2.6,11.21,11.21,0,0,1,2.15-2.55,14.67,14.67,0,0,1,2.85-1.95,6.65,6.65,0,0,1,3.05-.8c1.07,0,1.6.34,1.6,1-.2.34-.4.72-.6,1.15S431.24,64.54,431.11,64.87Z"/><path d="M459.81,71.27a46.32,46.32,0,0,1-4.05,4.35,38.3,38.3,0,0,1-5.1,4.1,28.31,28.31,0,0,1-5.7,3,16,16,0,0,1-5.85,1.15q-4.69,0-4.7-4.2a14.92,14.92,0,0,1,1.45-6,26,26,0,0,1,3.75-6,24.48,24.48,0,0,1,5.05-4.6,9.49,9.49,0,0,1,5.25-1.85,3,3,0,0,1,1.95.5,1.68,1.68,0,0,1,.55,1.3,5.55,5.55,0,0,1-.75,2.6,9,9,0,0,1-2.25,2.65,12.59,12.59,0,0,1-3.8,2.1,15.81,15.81,0,0,1-5.5.85A16.23,16.23,0,0,0,439,74a13.38,13.38,0,0,0-.6,4c0,2.74,1.23,4.1,3.7,4.1a11.46,11.46,0,0,0,4.75-1.1,27.18,27.18,0,0,0,4.75-2.75,34.38,34.38,0,0,0,4.25-3.6A37,37,0,0,0,459.11,71a.4.4,0,0,1,.45-.1A.39.39,0,0,1,459.81,71.27Zm-10.5-7.8a1.15,1.15,0,0,0-1.3-1.3,3.53,3.53,0,0,0-2.05.75,11.23,11.23,0,0,0-2,2,26,26,0,0,0-1.9,2.6,23.37,23.37,0,0,0-1.5,2.7,2,2,0,0,0,.7.15,6.64,6.64,0,0,0,.8.05,7.25,7.25,0,0,0,5.1-2.05A6.39,6.39,0,0,0,449.31,63.47Z"/><path d="M486.51,70.27a53.38,53.38,0,0,1-4.15,5,37.39,37.39,0,0,1-5,4.55,30.35,30.35,0,0,1-5.4,3.3,12.43,12.43,0,0,1-5.35,1.3,6.72,6.72,0,0,1-2.2-.35c-.67-.23-1-.82-1-1.75a8.88,8.88,0,0,1,1-3.55q1-2.14,2.35-4.55t2.8-4.9a42,42,0,0,0,2.35-4.6,1.11,1.11,0,0,0,0-.85c-.1-.23-.32-.25-.65-.05a32,32,0,0,0-2.6,1.9c-1,.8-2,1.65-3,2.55s-2,1.82-3,2.75a31,31,0,0,0-2.35,2.5c-1.07,1.67-2,3.2-2.75,4.6s-1.72,3-2.85,4.7q-.4.6-.6.6c-.33,0-.62-.36-.85-1.1a6.72,6.72,0,0,1-.35-1.4,4.58,4.58,0,0,1,1.25-2.45q1.24-1.55,2.75-3.45,1.6-3.19,3.3-6.75t2.9-6.35a1,1,0,0,1,.9-.5,1.54,1.54,0,0,1,1.1.5,1.55,1.55,0,0,1,.5,1.1,10.77,10.77,0,0,1-1.45,2.75,48,48,0,0,0-2.85,5.45q1.9-1.69,4.15-3.6t4.3-3.5c1.37-1.06,2.57-2,3.6-2.65a5.08,5.08,0,0,1,2.15-1.05,1,1,0,0,1,.75.45,1.45,1.45,0,0,1,.35.85,2.67,2.67,0,0,1-.5,1.2q-1.1,1.61-2.7,4.1c-1.07,1.67-2.08,3.39-3.05,5.15a53.62,53.62,0,0,0-2.45,5,10.61,10.61,0,0,0-1,3.8,2.18,2.18,0,0,0,.5,1.65,2.35,2.35,0,0,0,1.6.45,8.4,8.4,0,0,0,4-1.3,36,36,0,0,0,4.75-3.25,41.21,41.21,0,0,0,4.65-4.35,32.92,32.92,0,0,0,3.6-4.6.45.45,0,0,1,.6-.15C486.88,69.62,486.84,69.87,486.51,70.27Z"/></svg>
