<svg id="Layer_1" data-name="Layer 1" xmlns="http://www.w3.org/2000/svg" width="174.63mm" height="32.1mm" viewBox="0 0 495 91"><title>logo2</title><path d="M6.39,66.37Q3.8,64.29,3.8,58.59a22.45,22.45,0,0,1,1.6-8.68Q7,46,9.78,46a7.81,7.81,0,0,1,2.85.8A31.53,31.53,0,0,0,9.86,58.59a7.78,7.78,0,0,0,1.2,4.6,3.87,3.87,0,0,0,3.32,1.68,4.37,4.37,0,0,0,3.29-1.6,17.91,17.91,0,0,0,2.92-5.55q2.47-7.08,5.69-20.66T31.1,14.43q-5.12.08-8.58.47a66.94,66.94,0,0,0-7,1.21,6.07,6.07,0,0,1,3.61-4.89c2.07-1,5.25-1.46,9.53-1.46a80.61,80.61,0,0,1,8.69.51q4.66.51,8.1,1.09a5.51,5.51,0,0,1-2.92,2.38,11.61,11.61,0,0,1-3.72.62l-4.24.07a4.59,4.59,0,0,1,.95,2.85A94.74,94.74,0,0,1,34,26.91q-1.41,7.67-3.68,16.28a91.16,91.16,0,0,1-4.89,14.38q-2.7,6-5.84,8.43a11,11,0,0,1-6.87,2.45A9.75,9.75,0,0,1,6.39,66.37Z"/><path d="M35.74,62.54a8.48,8.48,0,0,1-1.35-4.89,17.52,17.52,0,0,1,1.27-6.36A16.87,16.87,0,0,1,39,45.82a5.81,5.81,0,0,1,4.17-2.19,6.18,6.18,0,0,1,2.26.58,10.12,10.12,0,0,1,2.37-5.54,6.87,6.87,0,0,1,5.44-2.19,5.32,5.32,0,0,1,4.31,1.64,6.41,6.41,0,0,1,1.38,4.27,15.66,15.66,0,0,1-1.35,5.84A40.79,40.79,0,0,1,54.1,54.8a4.51,4.51,0,0,0,2,.44,8.84,8.84,0,0,0,4.38-1.35,8.69,8.69,0,0,0,3.58-4.13l1.31,1A12.41,12.41,0,0,1,61.29,56a9.19,9.19,0,0,1-5.37,1.82,11.5,11.5,0,0,1-3.65-.65,25.89,25.89,0,0,1-5.91,5.25,11.64,11.64,0,0,1-6.28,2.05A4.88,4.88,0,0,1,35.74,62.54Zm10.18-3.22a24.88,24.88,0,0,0,3.8-3.72Q45.55,52,45.34,44.87a6.67,6.67,0,0,0-2.12,2.7,28.27,28.27,0,0,0-2.12,5,16.43,16.43,0,0,0-.87,4.82c0,2.24.82,3.35,2.48,3.35A5.7,5.7,0,0,0,45.92,59.32Zm8.72-11.68a13.8,13.8,0,0,0,1.21-5.25c0-2.14-.68-3.21-2.05-3.21a3,3,0,0,0-2,1,7.17,7.17,0,0,0-1.68,2.51,9.09,9.09,0,0,0-.65,3.47,14.74,14.74,0,0,0,.58,3.83,9.07,9.07,0,0,0,1.53,3.33A31,31,0,0,0,54.64,47.64Z"/><path d="M63.4,62.94a10.7,10.7,0,0,1-2.44-7c0-1.89.34-3.22,1-4a7,7,0,0,1,2.3-1.72,7.38,7.38,0,0,0,1.49-.8,36.89,36.89,0,0,0,7.09-10v-.73a7.11,7.11,0,0,1,.91-4,2.76,2.76,0,0,1,2.37-1.31,1.52,1.52,0,0,1,1.75,1.46,5,5,0,0,1-.18,1.09,6.41,6.41,0,0,0-.18,1.53A10.3,10.3,0,0,0,78,40.34c.29,1,.75,2.41,1.38,4.17q1.17,3.21,1.79,5.54a18.6,18.6,0,0,1,.62,4.75,19.12,19.12,0,0,1-.29,3q5-1.24,8.61-8.25l.88.66a17.31,17.31,0,0,1-4,6.72A10.7,10.7,0,0,1,80.81,60,8.59,8.59,0,0,1,77,64.4,12,12,0,0,1,71,65.89Q65.85,65.89,63.4,62.94Zm9.78-1a4.63,4.63,0,0,0,1.94-2.11,14.5,14.5,0,0,1-5.26-2.23A17.15,17.15,0,0,1,66,54.07c-.68.14-1,.8-1,2a7.67,7.67,0,0,0,1.46,4.63,4.69,4.69,0,0,0,4,2A5.37,5.37,0,0,0,73.18,62Zm2.74-6.57a29.43,29.43,0,0,0-.51-4.6Q75,48.53,74.1,44.94l-.66-2.62a49.92,49.92,0,0,1-6.35,9.12,13.81,13.81,0,0,0,8.61,6.21A8,8,0,0,0,75.92,55.38Z"/><path d="M89.35,62.9a8.47,8.47,0,0,1-2.55-6.35,18.49,18.49,0,0,1,2.85-9.16A26.82,26.82,0,0,1,97,39.14a14.67,14.67,0,0,1,8.76-3.32A6.24,6.24,0,0,1,109.5,37,4.38,4.38,0,0,1,111,40.71a9.94,9.94,0,0,1-2.71,6.61,20.43,20.43,0,0,1-7,5.07,28.46,28.46,0,0,1-8.72,2.48,8.46,8.46,0,0,0-.15,1.68,7.81,7.81,0,0,0,1.06,3.8q1.07,1.89,4.56,1.89,4.45,0,9.09-3.61a27.62,27.62,0,0,0,7.49-9l1.46,1.16a26.1,26.1,0,0,1-8.36,10.59,18.81,18.81,0,0,1-11.28,4A9.83,9.83,0,0,1,89.35,62.9Zm10-12.85a19.91,19.91,0,0,0,5.51-4.49,8.12,8.12,0,0,0,2.26-5.22,1.52,1.52,0,0,0-.29-1.09,1.32,1.32,0,0,0-1-.29,7.73,7.73,0,0,0-4.63,2A23.36,23.36,0,0,0,96.58,46a24.43,24.43,0,0,0-3.14,6.13A15.79,15.79,0,0,0,99.32,50.05Z"/><path d="M109.61,81.08q-1.5-1.53-1.5-5.33,0-7.66,5.44-24A158.41,158.41,0,0,1,126.4,22.46q7.41-12.85,13.54-12.85,3.08,0,3.07,3.65a19.3,19.3,0,0,1-2.85,9.2,49,49,0,0,1-7.48,10,59.1,59.1,0,0,1-9.6,8.22,11.26,11.26,0,0,1-.48,1.13,12.25,12.25,0,0,0-.54,1.35,3.84,3.84,0,0,1,1.68,1.9q2,5.76,6.49,5.76a10.17,10.17,0,0,0,4.71-1.27,18.47,18.47,0,0,0,4.42-3.25,28.11,28.11,0,0,1,3.87-6.61q2.11-2.59,4.23-2.59a2.26,2.26,0,0,1,1.57.55,2,2,0,0,1,.62,1.57,5.32,5.32,0,0,1-.77,2.11c-.51,1-1.1,2-1.78,3.14q-2.41,4.09-3.73,6.94a13.13,13.13,0,0,0-1.31,5.47,4.53,4.53,0,0,0,.8,3.1,3.52,3.52,0,0,0,2.63.84q5.63,0,11.53-11.38l1.17,1.09a25.66,25.66,0,0,1-6.57,10.18,12.79,12.79,0,0,1-8.68,3.69,6.2,6.2,0,0,1-4.79-1.86,6.69,6.69,0,0,1-1.71-4.71,25,25,0,0,1,1.24-6.93A15.94,15.94,0,0,1,129,53.7a15.23,15.23,0,0,1-4.74-.87c.24,2,.36,3.31.36,3.79A46.6,46.6,0,0,1,123,68.81a32,32,0,0,1-4.34,9.93c-1.8,2.58-3.73,3.87-5.77,3.87A4.49,4.49,0,0,1,109.61,81.08Zm8.14-6.39a41.81,41.81,0,0,0,2.77-8.39A41.08,41.08,0,0,0,121.69,57q0-5.19-1.75-7.74a141.46,141.46,0,0,0-4.53,14.86,49.33,49.33,0,0,0-1.67,10.69c0,2.19.36,3.29,1.09,3.29S116.68,77,117.75,74.69Zm14.75-47a53.61,53.61,0,0,0,5-7.08A11,11,0,0,0,139.21,16c0-.34-.19-.52-.58-.52q-2.56,0-6.13,5.52a91.77,91.77,0,0,0-7.3,14.41A76.2,76.2,0,0,0,132.5,27.68Zm16.38,3a2.43,2.43,0,0,1-1-2.12,3.68,3.68,0,0,1,1.89-3,6.94,6.94,0,0,1,4-1.32c2,0,3,.93,3,2.78a4,4,0,0,1-1.6,3,5.46,5.46,0,0,1-3.65,1.39A4.52,4.52,0,0,1,148.88,30.64Z"/><path d="M175.2,62.24a4.68,4.68,0,0,1-1.53-3.65A8.69,8.69,0,0,1,174,56.4c.22-.82.45-1.65.69-2.48a19.23,19.23,0,0,0,1-5A2.87,2.87,0,0,0,175,46.8a2.55,2.55,0,0,0-1.82-.69q-3.87,0-7.81,4.86a109.69,109.69,0,0,0-8.47,12.3,5.6,5.6,0,0,1-4.75-2.12l.66-1.83q4.31-10.43,4.31-15.47a5.6,5.6,0,0,1,1.68-1.21,4.75,4.75,0,0,1,2.11-.54,2.77,2.77,0,0,1,1.9.58,2,2,0,0,1,.66,1.61,28.74,28.74,0,0,1-1.24,6.49A37.84,37.84,0,0,1,169,43.63a11.35,11.35,0,0,1,7-2.77,5.46,5.46,0,0,1,4.53,2,7.44,7.44,0,0,1,1.61,4.78,11.38,11.38,0,0,1-.41,3.07,24.25,24.25,0,0,1-1.2,3.29,13.68,13.68,0,0,0-1.24,4.59,2.21,2.21,0,0,0,.51,1.61,1.68,1.68,0,0,0,1.24.51q2.42,0,5.22-3.32a39.32,39.32,0,0,0,5.07-7.85l1.24,1a34.83,34.83,0,0,1-5.8,9.57,9.6,9.6,0,0,1-7.26,3.5A6.17,6.17,0,0,1,175.2,62.24Z"/><path d="M190.75,62.9a8.48,8.48,0,0,1-2.56-6.35A18.49,18.49,0,0,1,191,47.39a27,27,0,0,1,7.3-8.25,14.72,14.72,0,0,1,8.76-3.32A6.25,6.25,0,0,1,210.9,37a4.38,4.38,0,0,1,1.53,3.76,9.92,9.92,0,0,1-2.7,6.61,20.43,20.43,0,0,1-7,5.07A28.6,28.6,0,0,1,194,54.87a9.34,9.34,0,0,0-.14,1.68,7.7,7.7,0,0,0,1.06,3.8q1.05,1.89,4.56,1.89,4.45,0,9.09-3.61a27.59,27.59,0,0,0,7.48-9l1.46,1.16a26,26,0,0,1-8.36,10.59,18.79,18.79,0,0,1-11.28,4A9.81,9.81,0,0,1,190.75,62.9Zm10-12.85a19.62,19.62,0,0,0,5.51-4.49,8.14,8.14,0,0,0,2.27-5.22,1.56,1.56,0,0,0-.29-1.09,1.33,1.33,0,0,0-.95-.29,7.75,7.75,0,0,0-4.64,2A23.33,23.33,0,0,0,198,46a24.1,24.1,0,0,0-3.14,6.13A15.69,15.69,0,0,0,200.71,50.05Z"/><path d="M246.52,67.17q-2.34-1.35-2.34-5.14a21,21,0,0,1,.7-4.68q.69-2.91,2.52-8.76l.94-3.06q2.34-7.51,3.47-12.63a51.35,51.35,0,0,0,1.13-11.17,18.36,18.36,0,0,0-1-6.94,3.52,3.52,0,0,0-3.47-2.26,5.71,5.71,0,0,0-5.15,3.29,14.83,14.83,0,0,0-1.86,7.44,11.54,11.54,0,0,0,1.1,5.33,7.15,7.15,0,0,1-5.11-1.6,5.6,5.6,0,0,1-1.68-4.24,11.33,11.33,0,0,1,1.93-6.06,15.93,15.93,0,0,1,5.19-5.07,13,13,0,0,1,7-2,8.73,8.73,0,0,1,7.52,3.65Q260,16.92,260,23.63a43.62,43.62,0,0,1-1.16,9.67q-1.17,5.07-3.58,12.67c-.15.53-.32,1.07-.51,1.6s-.39,1.12-.59,1.75q-1.45,4.17-2.3,7.3a24.16,24.16,0,0,0-.83,6.14,4.19,4.19,0,0,0,.32,1.93,1.39,1.39,0,0,0,1.28.55q3.65,0,8.36-5.88a70.38,70.38,0,0,0,8.47-13.76q3.75-7.89,4.49-12.92a6.12,6.12,0,0,1,4.2,1.46,4.1,4.1,0,0,1,1.64,3c0,.93-.9,3.48-2.7,7.67q-2.49,5.84-3.91,10a24,24,0,0,0-1.42,7.63,4.2,4.2,0,0,0,.4,2.16,1.67,1.67,0,0,0,1.5.62q4,0,10.11-7.34a78.09,78.09,0,0,0,10.69-17.3q4.61-10,4.6-17.12A9.38,9.38,0,0,0,297.77,18a7.38,7.38,0,0,0-3.65-2.59,9.78,9.78,0,0,1,2.73-3.07,5,5,0,0,1,2.74-1,3.86,3.86,0,0,1,2.45,1,7.12,7.12,0,0,1,2,3,13.25,13.25,0,0,1,.81,4.89q0,7.74-5.55,19.38a82.94,82.94,0,0,1-13.43,20.29q-7.89,8.66-14.38,8.65a6.69,6.69,0,0,1-4.71-1.71,5.93,5.93,0,0,1-1.86-4.57,12,12,0,0,1,.73-3.72q-8,10-14.39,10A9.39,9.39,0,0,1,246.52,67.17Z"/><path d="M304.33,62.06a2.73,2.73,0,0,1-.8-1.93,3.55,3.55,0,0,1,1.57-2.56,4.84,4.84,0,0,1,3-1.31,2.71,2.71,0,0,1,1.68.55,2,2,0,0,1,.73,1.71,4.6,4.6,0,0,1-.47,1.72,6.07,6.07,0,0,1-1.32,1.86,2.83,2.83,0,0,1-2,.8A3.19,3.19,0,0,1,304.33,62.06Z"/><path d="M348,66.3a15.11,15.11,0,0,1-5.51-6.39,22.1,22.1,0,0,1-2-9.71,42.37,42.37,0,0,1,4.63-18.69,46.57,46.57,0,0,1,12.09-15.66q7.44-6.16,15.25-6.17a6.64,6.64,0,0,1,5,2.05,16.85,16.85,0,0,0-2.12-.15q-6.14,0-12.52,6.13A49,49,0,0,0,352.22,33a42.78,42.78,0,0,0-4.16,17.6A19.28,19.28,0,0,0,350.58,61a8.51,8.51,0,0,0,7.77,4Q364.71,65,370,59a43.74,43.74,0,0,0,8.32-15.08,53.9,53.9,0,0,0,3-17.19,31.77,31.77,0,0,0-.77-7.26c-.51-2.16-1.35-3.25-2.52-3.25-1,0-2.2.87-3.54,2.59A32.11,32.11,0,0,0,370.84,25a30.5,30.5,0,0,0-2.27,6.57c-3.06-.63-4.6-2-4.6-4.23,0-1.7.81-3.67,2.41-5.91a25.86,25.86,0,0,1,5.77-5.81,10.67,10.67,0,0,1,6.06-2.44q3.87,0,5.4,4.89a37.68,37.68,0,0,1,1.53,11.24,44.52,44.52,0,0,1-4.59,20.62A37.21,37.21,0,0,1,369.12,63.7q-6.83,4.83-13.32,4.82A14.28,14.28,0,0,1,348,66.3Z"/><path d="M387.55,62.24a9.74,9.74,0,0,1-1.46-5.62q0-6.7,4.57-17.95a123.94,123.94,0,0,1,10.25-20.15q5.7-8.91,8.4-8.91c.82,0,1.53.65,2.11,1.94a10.06,10.06,0,0,1,.95,3.9q0,3.36-2.7,9.82a72.61,72.61,0,0,1-7.26,13.1,48.11,48.11,0,0,1-9.75,10.73,43.47,43.47,0,0,0-.8,6.87,6.82,6.82,0,0,0,.84,3.79A2.63,2.63,0,0,0,395,61c1.7,0,3.52-1.13,5.44-3.39a36.45,36.45,0,0,0,5.14-8.21l1.76,1a35.58,35.58,0,0,1-7.08,10.32q-3.87,3.69-8,3.69A5.27,5.27,0,0,1,387.55,62.24Zm13.84-27.59a77.28,77.28,0,0,0,5.55-10.8c1.38-3.41,2.08-5.94,2.08-7.6-.64,0-1.91,1.49-3.84,4.46a102.06,102.06,0,0,0-6.06,11.06A98.4,98.4,0,0,0,394,44.58,60.81,60.81,0,0,0,401.39,34.65Z"/><path d="M404.82,62.94a10.71,10.71,0,0,1-2.45-7c0-1.89.34-3.22,1-4a7.08,7.08,0,0,1,2.3-1.72,8,8,0,0,0,1.5-.8,36.85,36.85,0,0,0,7.08-10v-.73a7.11,7.11,0,0,1,.91-4,2.77,2.77,0,0,1,2.38-1.31,1.52,1.52,0,0,1,1.75,1.46,5,5,0,0,1-.18,1.09,5.94,5.94,0,0,0-.19,1.53,10.67,10.67,0,0,0,.44,2.92c.29,1,.75,2.41,1.39,4.17.78,2.14,1.37,4,1.79,5.54a18.6,18.6,0,0,1,.62,4.75,18.12,18.12,0,0,1-.3,3q5-1.24,8.62-8.25l.88.66a17.45,17.45,0,0,1-4.06,6.72A10.68,10.68,0,0,1,422.23,60a8.61,8.61,0,0,1-3.8,4.42,12,12,0,0,1-6.06,1.49Q407.27,65.89,404.82,62.94Zm9.78-1a4.6,4.6,0,0,0,1.93-2.11,14.46,14.46,0,0,1-5.25-2.23,16.73,16.73,0,0,1-3.87-3.54c-.68.14-1,.8-1,2a7.6,7.6,0,0,0,1.46,4.63,4.68,4.68,0,0,0,4,2A5.41,5.41,0,0,0,414.6,62Zm2.74-6.57a29.43,29.43,0,0,0-.51-4.6c-.3-1.5-.73-3.45-1.32-5.84l-.65-2.62a50.38,50.38,0,0,1-6.36,9.12,13.87,13.87,0,0,0,8.62,6.21A8.35,8.35,0,0,0,417.34,55.38Z"/><path d="M430.77,62.9a8.48,8.48,0,0,1-2.56-6.35,18.49,18.49,0,0,1,2.85-9.16,27,27,0,0,1,7.3-8.25,14.72,14.72,0,0,1,8.76-3.32,6.25,6.25,0,0,1,3.8,1.13,4.38,4.38,0,0,1,1.53,3.76,9.92,9.92,0,0,1-2.7,6.61,20.53,20.53,0,0,1-7,5.07,28.6,28.6,0,0,1-8.73,2.48,9.34,9.34,0,0,0-.14,1.68,7.7,7.7,0,0,0,1.06,3.8q1,1.89,4.56,1.89,4.46,0,9.09-3.61a27.59,27.59,0,0,0,7.48-9l1.46,1.16a26,26,0,0,1-8.36,10.59,18.77,18.77,0,0,1-11.28,4A9.81,9.81,0,0,1,430.77,62.9Zm10-12.85a19.81,19.81,0,0,0,5.52-4.49,8.17,8.17,0,0,0,2.26-5.22,1.56,1.56,0,0,0-.29-1.09,1.33,1.33,0,0,0-1-.29,7.75,7.75,0,0,0-4.64,2A23.33,23.33,0,0,0,438,46a24.1,24.1,0,0,0-3.14,6.13A15.69,15.69,0,0,0,440.73,50.05Z"/><path d="M474.64,62.24a4.68,4.68,0,0,1-1.53-3.65,8.69,8.69,0,0,1,.33-2.19c.22-.82.45-1.65.69-2.48a19.23,19.23,0,0,0,1-5,2.87,2.87,0,0,0-.73-2.16,2.53,2.53,0,0,0-1.82-.69q-3.87,0-7.81,4.86a111,111,0,0,0-8.47,12.3,5.6,5.6,0,0,1-4.75-2.12l.66-1.83q4.31-10.43,4.31-15.47a5.6,5.6,0,0,1,1.68-1.21,4.75,4.75,0,0,1,2.11-.54,2.77,2.77,0,0,1,1.9.58,2,2,0,0,1,.66,1.61,28.74,28.74,0,0,1-1.24,6.49,37.84,37.84,0,0,1,6.82-7.15,11.35,11.35,0,0,1,7-2.77,5.46,5.46,0,0,1,4.53,2,7.44,7.44,0,0,1,1.61,4.78,11.38,11.38,0,0,1-.41,3.07A23,23,0,0,1,480,54a13.68,13.68,0,0,0-1.24,4.59,2.21,2.21,0,0,0,.51,1.61,1.68,1.68,0,0,0,1.24.51q2.41,0,5.22-3.32a38.88,38.88,0,0,0,5.07-7.85l1.25,1a35.08,35.08,0,0,1-5.81,9.57,9.6,9.6,0,0,1-7.26,3.5A6.17,6.17,0,0,1,474.64,62.24Z"/></svg>
